<mxfile host="65bd71144e">
    <diagram id="LJQrAcnW7HjNgwRx7z_M" name="Page-1">
        <mxGraphModel dx="538" dy="223" grid="1" gridSize="10" guides="1" tooltips="1" connect="1" arrows="1" fold="1" page="1" pageScale="1" pageWidth="850" pageHeight="1100" math="0" shadow="0">
            <root>
                <mxCell id="0"/>
                <mxCell id="1" parent="0"/>
                <mxCell id="2" value="&lt;div style=&quot;color: rgb(171, 178, 191); background-color: rgb(40, 44, 52); font-family: MontserratAlternates-Regular, Consolas, &amp;quot;Courier New&amp;quot;, monospace; font-size: 18px; line-height: 24px;&quot;&gt;&lt;span style=&quot;color: #c678dd;&quot;&gt;const&lt;/span&gt; &lt;span style=&quot;color: #d19a66;&quot;&gt;arr&lt;/span&gt;&lt;span style=&quot;color: #56b6c2;&quot;&gt;:&lt;/span&gt; &lt;span style=&quot;color: #56b6c2;&quot;&gt;any&lt;/span&gt;[] &lt;span style=&quot;color: #56b6c2;&quot;&gt;=&lt;/span&gt; [&lt;span style=&quot;color: #98c379;&quot;&gt;&quot;str&quot;&lt;/span&gt;, &lt;span style=&quot;color: #d19a66;&quot;&gt;2&lt;/span&gt;, obj1];&lt;/div&gt;" style="html=1;" vertex="1" parent="1">
                    <mxGeometry x="120" y="240" width="360" height="30" as="geometry"/>
                </mxCell>
            </root>
        </mxGraphModel>
    </diagram>
</mxfile>